<svg width="43" height="54" viewBox="0 0 43 54" fill="none" xmlns="http://www.w3.org/2000/svg">
<path d="M33.3322 2.30717C30.4979 0.769058 27.0674 0 23.0407 0H18.405C16.1959 0 14.405 1.79086 14.405 4V5.17685C14.405 7.38599 16.1959 9.17685 18.405 9.17685H20.889C23.0666 9.17685 24.864 9.54842 26.2811 10.2915C27.6982 11.0174 28.7524 12.0457 29.4437 13.3764C30.1523 14.6899 30.5066 16.228 30.5066 17.9908C30.5066 19.7363 30.1523 21.283 29.4437 22.631C28.7524 23.9618 27.6982 25.0073 26.2811 25.7678C24.8812 26.5109 23.1012 26.8825 20.9409 26.8825H18.405C16.1959 26.8825 14.405 28.6733 14.405 30.8825V31.8778C14.405 34.087 16.1959 35.8778 18.405 35.8778H22.7555C26.8341 35.8778 30.3078 35.1261 33.1767 33.6225C36.0628 32.119 38.2663 30.0192 39.7871 27.3232C41.308 24.6271 42.0684 21.5163 42.0684 17.9908C42.0684 14.4652 41.3166 11.3544 39.8131 8.65838C38.3268 5.94508 36.1665 3.82801 33.3322 2.30717Z" fill="black"/>
<path d="M0.887695 4V49.0909C0.887695 51.3001 2.67855 53.0909 4.88769 53.0909H8.11248C10.3216 53.0909 12.1125 51.3001 12.1125 49.0909L12.1125 4C12.1125 1.79086 10.3216 0 8.11248 0H4.8877C2.67856 0 0.887695 1.79086 0.887695 4Z" fill="black"/>
<path d="M38.1125 42L18.1126 42C15.9034 42 14.1125 43.7909 14.1125 46L14.1125 49C14.1125 51.2091 15.9034 53 18.1125 53L38.1125 53C40.3217 53 42.1125 51.2091 42.1125 49L42.1125 46C42.1125 43.7909 40.3217 42 38.1125 42Z" fill="black"/>
</svg>
